<?xml version="1.0" encoding="UTF-8"?>
<svg width="2038px" height="700px" viewBox="0 0 2038 700" version="1.1" xmlns="http://www.w3.org/2000/svg" xmlns:xlink="http://www.w3.org/1999/xlink">
    <!-- Generator: Sketch 54.1 (76490) - https://sketchapp.com -->
    <title>cover-nachhaltiges-webdesign</title>
    <desc>Created with Sketch.</desc>
    <g id="cover-nachhaltiges-webdesign" stroke="none" stroke-width="1" fill="none" fill-rule="evenodd">
        <g id="Group" transform="translate(455.000000, 130.000000)"></g>
        <rect id="Rectangle" fill="#00A676" x="0" y="0" width="2038" height="700"></rect>
        <g id="iconmonstr-globe-5" transform="translate(936.000000, 267.000000)" fill="#FFF07B" fill-rule="nonzero">
            <path d="M91.0327891,56.3864985 C90.7877891,55.9244985 93.4267891,55.6724985 93.8957891,55.6724985 C94.4137891,55.7354985 92.5237891,58.8364985 91.0327891,56.3864985 Z M76.5745417,35.7946378 L77.3305417,35.5975822 C77.7785417,35.947197 76.8265417,36.2014624 76.9735417,36.4620843 C77.5755417,37.4473626 77.1205417,38.0385295 77.0295417,38.5724867 C76.9315417,39.1128006 76.3015417,38.8776052 75.9865417,39.1636537 C75.6155417,39.5831915 77.7925417,39.6404012 77.8205417,39.7039675 C77.8975417,39.9137365 75.1955417,40.2697079 75.6925417,40.7909519 C76.3645417,41.6554541 81.4605417,39.5514083 80.6485417,39.6721844 C82.2235417,38.9538848 80.8515417,38.8776052 79.9695417,38.464424 C79.6685417,37.0977477 79.4165417,34.9873453 78.4785417,34.141913 L79.0945417,33.4935364 C77.6525417,31.5929029 76.5745417,35.7946378 76.5745417,35.7946378 L76.5745417,35.7946378 Z M167,83 C167,128.83675 129.612875,166 83.5,166 C37.3801667,166 -5.67879077e-14,128.83675 -5.67879077e-14,83 C-5.67879077e-14,37.16325 37.3801667,0 83.5,0 C129.612875,0 167,37.16325 167,83 Z M109.050875,45.7182702 C109.008748,44.7145857 107.716851,43.7658976 106.368785,45.5051591 C105.420926,46.7013311 105.589434,48.5230873 105.076888,49.3342844 C104.346686,50.5373309 109.057896,51.6647574 109.057896,50.5304564 C109.233425,48.6262056 114.197398,50.0973596 115.16632,50.3585926 C116.907572,50.8329367 119.680937,48.8049439 116.647788,47.7393884 C114.155271,46.8456967 112.84231,45.890134 112.617633,44.1439979 C112.617633,44.1439979 113.937614,42.9340768 113.361877,43.0028223 C111.831261,43.1884352 109.050875,48.4062199 109.050875,45.7182702 L109.050875,45.7182702 Z M152,83.9481541 C152,76.7934178 150.768811,69.5695537 149.516754,65.7536943 C149.113314,64.5508691 148.202094,63.5969043 147.019596,63.1406602 C145.238893,62.4493814 137.719597,67.2675951 136.58579,64.8965085 C135.841512,63.3134799 134.332088,65.9057757 132.607032,64.9518109 C131.772327,64.4955668 129.449066,61.3917247 128.39873,61.7719281 C126.249366,62.5392476 131.695813,68.4358563 133.184369,69.2100887 C134.582499,68.1593448 139.110771,65.9956419 140.084593,68.9474027 C141.948767,74.5052848 134.958116,80.5954516 131.382799,83.8029855 C126.04069,88.6004609 127.042335,80.6991434 123.404415,77.9132896 C121.49155,76.4546912 121.512418,73.3508491 119.578686,72.2793668 C118.716158,71.7954716 114.758267,67.2675951 114.793046,66.6592696 L114.674797,67.8067926 C114.020945,68.2976006 112.629771,65.9541652 112.483697,65.5877874 C112.483697,67.6270601 115.822515,70.8760707 116.928499,72.5074889 C118.81354,75.3071683 119.822141,79.3857136 122.13149,81.6738466 C123.369635,82.904323 128.099628,87.9921355 129.330817,87.8815308 C130.6733,87.7640134 134.916381,84.7154736 135.667615,84.8882933 C140.147196,85.9390372 125.122515,107.043781 123.696561,109.656815 C122.521019,111.848169 124.656471,117.267795 124.482575,119.860091 C124.280854,122.853329 121.908902,123.821119 119.662156,125.452537 C117.255425,127.201473 117.81885,130.602565 115.794692,131.846867 C112.198507,134.045133 109.610923,141.19987 104.505313,141.165306 C103.002845,141.158393 96.5756205,143.65391 95.7339601,141.213695 C95.0801083,139.444021 94.2036685,138.10294 93.2785377,136.354005 C92.3742745,134.639633 93.1741996,132.863047 92.075172,131.349146 C91.3169821,130.298402 88.7711334,127.91349 88.5415896,126.669188 C88.5276779,125.597706 89.3554265,122.341782 90.4892335,121.774934 C92.0821279,120.966137 90.7952918,118.608876 90.6005274,117.240144 C90.2666456,114.793017 88.7433099,112.774483 86.9139158,111.357361 C84.208082,109.290437 85.6062121,107.645194 86.2391963,104.693433 C86.2391963,103.283224 85.3766683,101.430597 83.4707597,101.98362 C79.5476485,103.117317 80.7371024,98.9419927 77.8782395,99.128638 C75.8193017,99.2738065 74.1359809,100.573411 72.2231164,101.147172 C69.8163851,101.866102 67.3540068,100.580324 64.9750989,100.283074 C55.1881886,99.0525973 51.9954438,87.9368331 54.5482484,79.9179983 C54.8056157,78.6045685 53.7552791,76.1712668 54.2143666,75.1550869 C55.3133942,72.7217853 57.5531847,69.9912338 59.5147403,68.1455192 C60.6137679,67.1086009 62.0258097,67.3712869 63.3196017,66.5624906 C65.3159366,65.3112759 65.3437601,62.7397185 67.2983598,61.1636027 C70.0807082,58.9169464 73.8786137,58.9653359 77.5095783,58.4814407 C79.4433104,58.2256675 86.8026219,56.6426389 87.9642523,58.0666733 C87.9642523,58.3293593 89.2928237,62.2419977 87.8320908,62.0207885 C90.8439829,62.1797826 95.1357552,67.1984672 97.9946182,66.0232931 C99.462307,65.4149677 98.9267049,60.9354806 101.938597,63.0991835 C103.761035,64.3987878 111.927228,64.979462 113.62446,63.5761659 C114.667841,62.7189801 115.252134,57.1472725 113.986165,56.5182087 C114.793046,57.3131794 109.736128,57.3753945 109.263129,57.195662 C108.428425,56.8914993 107.649367,57.9837199 106.306884,57.3684817 C107.113765,57.7486851 101.813391,54.9213545 104.790504,52.7576517 C103.545403,53.663227 102.383773,52.5018785 101.04129,53.49732 C100.116159,54.2439012 101.472554,54.741622 100.150938,55.3914241 C98.0502652,56.4490808 96.4643266,51.7622101 95.6713573,51.2299254 C94.8644763,50.7045534 88.6181042,46.3494966 90.3153367,49.1906527 L95.8035188,54.6171918 C95.5322399,54.7900115 94.3636536,52.6401342 94.3636536,54.2093373 C94.7323147,53.2761108 94.502771,58.2118419 93.640243,56.6080749 C93.2576701,55.9928367 94.2662714,55.6471973 93.6819782,54.7554476 C93.6819782,54.1678605 92.0960397,53.5940991 91.7899813,53.1931573 C90.9204975,52.1216751 88.6111483,49.7575014 87.3590916,49.1906527 C87.011298,49.0316586 82.0448062,49.7920653 81.6274539,49.9510595 C81.140543,50.6285127 80.7231907,51.34053 80.382353,52.1009367 C79.3528841,52.4811401 78.3860181,52.9719481 77.4678431,53.5802735 L76.3757714,56.0204879 C75.9027722,56.442168 71.0545301,58.0321094 71.0267066,58.0943245 C71.2284269,57.5758654 67.6391975,56.9122376 67.8756971,55.8753193 C68.1400202,54.7347092 69.3572976,51.1746231 69.0442834,49.8750188 C68.7104016,48.5131994 76.5148888,51.8382508 77.0157115,48.2505134 C77.2174318,46.695136 77.3356816,44.8839854 74.8385239,44.6212994 C75.3115231,44.6766017 79.6728542,42.9207534 80.3962648,42.1326955 C81.4118219,40.971347 83.7420387,39.0772429 85.4323153,39.0772429 C87.4077827,39.0772429 86.9834745,36.2222612 87.8946936,34.8258779 C88.8059127,35.1922557 87.4077827,37.4250864 88.4998544,38.3306617 C88.4302957,37.6186445 91.5952169,38.7246907 91.9012753,38.5587837 C92.6246858,38.1854932 96.659091,38.4067024 96.0330626,36.5264239 C95.3374755,34.6115814 96.387812,35.1784301 97.2920752,34.7774884 C97.1390461,34.8397035 99.6570713,30.4984722 100.088335,31.9225066 C99.7892329,30.4569954 97.1599137,32.434053 96.2417387,32.3580123 C94.1201981,32.1921054 95.0175054,28.7633622 95.8174306,27.7610079 C96.4365031,26.9660372 94.127154,25.991334 94.0993305,27.5121475 C94.0575952,29.7864549 91.9290987,31.846466 92.4229656,34.8673546 C93.1741996,39.4228823 87.3104005,33.7682212 86.795666,34.0792967 C84.8480222,35.2544708 83.2551277,32.5999599 84.263729,31.0100185 C85.2931979,29.3855132 87.7764438,29.4615539 88.7989568,27.7195311 C89.5223674,26.4890548 90.3640278,25.0581075 91.4769671,24.124881 C95.1983581,21.0210389 96.227827,23.5027301 99.9353062,23.8414567 C103.559315,24.1732706 101.159539,24.6986425 100.658717,26.0812002 C100.178762,27.3946301 102.648096,27.8646997 103.503668,26.7655663 C103.990579,26.1295897 105.096562,24.5327356 105.576517,23.3506487 C106.19559,21.8160096 111.843757,21.9888293 107.899778,19.645394 C105.298283,18.1038421 93.9602131,15 86.364402,15 C84.7228165,15 83.5750978,16.8180634 82.323041,17.8480689 C79.846751,19.8873416 73.5029967,23.8898462 69.9763701,22.6731954 C66.3662731,21.4358062 58.6383005,27.2356359 57.4001555,27.2771127 C56.9480239,27.3047638 57.427979,22.8944046 59.8903573,22.5695036 C58.826109,22.7284977 68.5643283,17.682162 68.3000052,16.6314181 C67.9800352,15.3871162 48.8305225,22.3137304 49.6860947,23.7032009 C50.096491,24.3391775 51.7659001,24.3391775 49.5748007,25.7355608 C48.322744,26.4890548 46.9872167,31.2727045 45.8116746,31.2727045 C42.2989597,32.8004308 42.0763719,28.2656414 38.1671724,34.1000351 L31.9486238,36.588639 C22.7112272,46.3425838 16.3187819,58.6957371 14.0024768,72.4176226 C13.9120505,72.9637329 16.3257377,73.9799128 16.6387519,74.3532034 C17.4178095,75.2795171 17.4178095,79.275109 17.8003824,80.581626 C18.7602926,83.885939 21.1322445,85.7247408 22.9477269,88.7318038 C24.018931,90.5222161 25.7996339,95.0500927 25.2362084,96.9303712 C25.9874424,95.6998948 32.6789903,102.564294 33.9032235,103.995241 C36.7829541,107.361769 39.0018769,111.440315 34.3275317,114.772279 C32.8181077,115.850674 36.6229691,122.576817 34.6614135,124.228974 L32.1503441,124.871863 C29.674054,126.385764 30.7939492,130.097931 32.2964174,131.660221 C44.9421907,144.801433 62.763132,153 82.5178054,153 C120.893345,153 152,122.086009 152,83.9481541 L152,83.9481541 Z M72.5326503,39.0954425 C73.4076503,38.7104425 74.5836503,38.7244425 74.7096503,37.5554425 C74.8146503,36.5194425 75.0176503,37.2334425 75.2696503,36.8554425 C75.5146503,36.4844425 74.8006503,35.8894425 74.4996503,35.8334425 C74.0516503,35.7354425 73.7436503,36.3164425 73.4566503,36.5614425 L72.9526503,36.6944425 L72.4766503,37.3034425 L72.5326503,37.6394425 L71.9236503,38.3814425 C71.3286503,38.9694425 71.9376503,39.3544425 72.5326503,39.0954425 L72.5326503,39.0954425 Z" id="Shape"></path>
        </g>
        <g id="Group-5" transform="translate(1007.787674, 114.000000)"></g>
        <rect id="Rectangle" fill="#42C07F" x="1008.35683" y="114" width="22.2863317" height="135.441744" rx="5"></rect>
        <path d="M1106.14832,141.222208 L1118.43177,141.217764 C1121.19319,141.217213 1123.43221,143.455343 1123.43276,146.216767 C1123.43276,146.217431 1123.43276,146.218096 1123.43276,146.218761 L1123.40375,271.678051 C1123.4032,274.438696 1121.16539,276.676503 1118.40475,276.677053 L1106.1213,276.683492 C1103.35988,276.684043 1101.12086,274.445913 1101.12031,271.684489 C1101.12031,271.683825 1101.12031,271.68316 1101.12031,271.682495 L1101.14932,146.223205 C1101.14987,143.46256 1103.38768,141.224753 1106.14832,141.224202 Z" id="Rectangle" fill="#22B97E" transform="translate(1112.276535, 208.950628) rotate(33.000000) translate(-1112.276535, -208.950628) "></path>
        <path d="M1169.46933,214.250502 L1181.74767,214.246776 C1184.5091,214.246314 1186.74805,216.484516 1186.74851,219.24594 C1186.74851,219.246497 1186.74851,219.247055 1186.74851,219.247612 L1186.72418,344.737944 C1186.72372,347.498714 1184.48579,349.736646 1181.72502,349.737107 L1169.44668,349.742506 C1166.68525,349.742968 1164.4463,347.504766 1164.44584,344.743342 C1164.44584,344.742785 1164.44584,344.742227 1164.44584,344.74167 L1164.47017,219.251339 C1164.47063,216.490568 1166.70856,214.252637 1169.46933,214.252175 Z" id="Rectangle" fill="#00B47F" transform="translate(1175.597175, 281.994641) rotate(65.000000) translate(-1175.597175, -281.994641) "></path>
        <path d="M1183.21559,309.911708 L1195.49238,309.913049 C1198.25357,309.913215 1200.49192,312.151559 1200.49208,314.912748 L1200.50084,440.412499 C1200.501,443.173923 1198.26256,445.412634 1195.50114,445.4128 C1195.50094,445.4128 1195.50074,445.4128 1195.50054,445.4128 L1183.22375,445.410857 C1180.46256,445.410691 1178.22421,443.172347 1178.22405,440.411158 L1178.21529,314.911407 C1178.21513,312.149983 1180.45357,309.911273 1183.21499,309.911106 C1183.21519,309.911106 1183.21539,309.911106 1183.21559,309.911106 Z" id="Rectangle" fill="#FAF07A" transform="translate(1189.358065, 377.661953) rotate(98.000000) translate(-1189.358065, -377.661953) "></path>
        <path d="M1143.03518,397.839823 L1155.31597,397.84464 C1158.07655,397.845237 1160.31429,400.08298 1160.31489,402.843559 L1160.34634,528.318995 C1160.34694,531.080419 1158.10884,533.319479 1155.34742,533.320076 C1155.3467,533.320076 1155.34598,533.320076 1155.34526,533.320076 L1143.06447,533.313097 C1140.30389,533.3125 1138.06615,531.074757 1138.06555,528.314178 L1138.0341,402.838742 C1138.0335,400.077318 1140.2716,397.838258 1143.03302,397.837661 C1143.03374,397.837661 1143.03446,397.837661 1143.03518,397.837661 Z" id="Rectangle" fill="#E6EA7C" transform="translate(1149.190220, 465.578869) rotate(131.000000) translate(-1149.190220, -465.578869) "></path>
        <path d="M1061.69601,450.108558 L1073.98161,450.111137 C1076.74258,450.111456 1078.98071,452.349586 1078.98103,455.110558 L1078.99786,580.556796 C1078.99818,583.318219 1076.75986,585.557055 1073.99844,585.557374 C1073.99805,585.557374 1073.99766,585.557374 1073.99728,585.557374 L1061.71169,585.553639 C1058.95071,585.55332 1056.71258,583.31519 1056.71227,580.554218 L1056.69544,455.10798 C1056.69512,452.346556 1058.93343,450.107721 1061.69486,450.107402 C1061.69524,450.107402 1061.69563,450.107402 1061.69601,450.107402 Z" id="Rectangle" fill="#D6E67C" transform="translate(1067.846646, 517.832388) rotate(164.000000) translate(-1067.846646, -517.832388) "></path>
        <path d="M965.018394,450.10998 L977.303987,450.107402 C980.06541,450.107082 982.304245,452.345399 982.304565,455.106823 C982.304565,455.107209 982.304565,455.107595 982.304565,455.10798 L982.287735,580.554218 C982.287415,583.31519 980.049285,585.55332 977.288313,585.553639 L965.002721,585.557374 C962.241297,585.557694 960.002462,583.319376 960.002143,580.557953 C960.002143,580.557567 960.002143,580.557181 960.002143,580.556796 L960.018973,455.110558 C960.019292,452.349586 962.257422,450.111456 965.018394,450.111137 Z" id="Rectangle" fill="#C0E07C" transform="translate(971.153354, 517.832388) rotate(196.000000) translate(-971.153354, -517.832388) "></path>
        <path d="M883.684029,397.842478 L895.964819,397.837661 C898.726243,397.837064 900.965303,400.075156 900.9659,402.83658 C900.9659,402.837301 900.9659,402.838021 900.9659,402.838742 L900.934449,528.314178 C900.933852,531.074757 898.69611,533.3125 895.93553,533.313097 L883.654741,533.320076 C880.893317,533.320673 878.654257,531.082581 878.65366,528.321157 C878.65366,528.320437 878.65366,528.319716 878.65366,528.318995 L878.685111,402.843559 C878.685708,400.08298 880.92345,397.845237 883.68403,397.84464 Z" id="Rectangle" fill="#A8DA7D" transform="translate(889.809780, 465.578869) rotate(229.000000) translate(-889.809780, -465.578869) "></path>
        <path d="M843.507615,309.912447 L855.784406,309.911106 C858.54583,309.91094 860.784541,312.149382 860.784707,314.910805 C860.784707,314.911006 860.784707,314.911207 860.784707,314.911407 L860.775953,440.411158 C860.775787,443.172347 858.537443,445.410691 855.776254,445.410857 L843.499463,445.4128 C840.738039,445.412966 838.499328,443.174525 838.499162,440.413101 C838.499162,440.4129 838.499162,440.4127 838.499162,440.412499 L838.507916,314.912748 C838.508082,312.151559 840.746427,309.913215 843.507615,309.913049 Z" id="Rectangle" fill="#8ED27D" transform="translate(849.641935, 377.661953) rotate(262.000000) translate(-849.641935, -377.661953) "></path>
        <path d="M857.252326,214.248448 L869.530666,214.252175 C872.291437,214.252637 874.529368,216.490568 874.52983,219.251339 L874.55416,344.74167 C874.554621,347.503094 872.31642,349.742044 869.554996,349.742506 C869.554438,349.742506 869.553881,349.742506 869.553323,349.742506 L857.274984,349.737107 C854.514213,349.736646 852.276282,347.498714 852.27582,344.737944 L852.25149,219.247612 C852.251028,216.486188 854.48923,214.247238 857.250654,214.246776 C857.251212,214.246776 857.251769,214.246776 857.252327,214.246776 Z" id="Rectangle" fill="#75CC7E" transform="translate(863.402825, 281.994641) rotate(295.000000) translate(-863.402825, -281.994641) "></path>
        <path d="M920.568233,141.219758 L932.851678,141.224202 C935.612323,141.224753 937.85013,143.46256 937.850681,146.223205 L937.879695,271.682495 C937.880246,274.443919 935.642116,276.682941 932.880692,276.683492 C932.880027,276.683492 932.879363,276.683492 932.878698,276.683492 L920.595253,276.677053 C917.834608,276.676503 915.5968,274.438696 915.59625,271.678051 L915.567236,146.218761 C915.566685,143.457337 917.804815,141.218315 920.566239,141.217764 C920.566903,141.217764 920.567568,141.217764 920.568233,141.217764 Z" id="Rectangle" fill="#59C57E" transform="translate(926.723465, 208.950628) rotate(327.000000) translate(-926.723465, -208.950628) "></path>
    </g>
</svg>